# xmcd
#
# Track frame offsets: 
#        150
#        19985
#        41157
#        54905
#
# Disc length: 1025 seconds
#
# Revision: 0
# Processed by: cddbd v1.4PL0 Copyright (c) Steve Scherf et al.
# Submitted via: ExactAudioCopy v0.95a3
#
DISCID=2d03ff04
DTITLE=NWA - Express Yourself - Straight Outta Compton
DYEAR=1988
DGENRE=Gangsta Rap
TTITLE0=Express Yourself
TTITLE1=Express Yourself (Extended Mix)
TTITLE2=Express Yourself (Bonus Beats)
TTITLE3=Straight Outta Compton (Extended Version)
EXTD=
EXTT0=
EXTT1=
EXTT2=
EXTT3=
PLAYORDER=
